<svg xmlns="http://www.w3.org/2000/svg" xmlns:xlink="http://www.w3.org/1999/xlink" width="1080" zoomAndPan="magnify" viewBox="0 0 810 809.999993" height="1080" preserveAspectRatio="xMidYMid meet" version="1.0"><defs><clipPath id="bedab534b5"><path d="M 263.09375 268 L 447 268 L 447 470 L 263.09375 470 Z M 263.09375 268 " clip-rule="nonzero"/></clipPath><clipPath id="e45345755f"><path d="M 294 279 L 538 279 L 538 550.832031 L 294 550.832031 Z M 294 279 " clip-rule="nonzero"/></clipPath></defs><rect x="-81" width="972" fill="#ffffff" y="-80.999999" height="971.999992" fill-opacity="1"/><rect x="-81" width="972" fill="#ffffff" y="-80.999999" height="971.999992" fill-opacity="1"/><g clip-path="url(#bedab534b5)"><path fill="#000000" d="M 414.742188 292.9375 L 416.738281 293.011719 L 417.414062 294.894531 C 438.386719 353.292969 399.132812 428.761719 346.300781 457.320312 C 351.488281 461.902344 363.742188 469.363281 366.585938 469.292969 C 416.230469 438.1875 447.753906 387.808594 446.285156 328.550781 C 445.941406 322.699219 445.519531 316.839844 444.84375 311.082031 C 443.785156 303.726562 439.179688 278.871094 434.753906 272.285156 C 370.742188 259.132812 315.546875 279.171875 265.371094 319.136719 C 264.105469 330.015625 263.300781 340.96875 263.09375 351.917969 C 309.0625 310.59375 350.570312 290.625 414.742188 292.9375 Z M 414.742188 292.9375 " fill-opacity="1" fill-rule="nonzero"/></g><g clip-path="url(#e45345755f)"><path fill="#000000" d="M 535.789062 316.054688 C 512.632812 301.207031 487.820312 288.167969 461.648438 279.472656 C 463.824219 285.214844 465.695312 291.089844 467.273438 297.035156 L 466.570312 296.945312 C 467 297.105469 467.273438 297.351562 467.429688 297.679688 L 467.714844 298.761719 C 467.808594 299.597656 467.78125 300.550781 468.332031 301.261719 L 468.339844 301.296875 C 481.761719 369.574219 441.9375 456.59375 384.636719 488.332031 C 388.03125 493.332031 407.476562 504.109375 410.53125 501.839844 C 489.019531 443.351562 495.980469 376.960938 494.847656 319.707031 C 500.53125 322.707031 506.136719 325.875 511.644531 329.167969 L 512.992188 329.96875 L 513.085938 331.527344 C 518.558594 423.242188 482.070312 484.40625 399.191406 524.023438 L 397.890625 524.640625 L 396.601562 524.011719 C 368.585938 510.164062 342.695312 492.777344 323.191406 469.269531 C 327.386719 441.777344 357.6875 404.53125 387.453125 403.167969 C 395.109375 392.5625 395.875 391.007812 400.71875 378.976562 C 357.054688 375.707031 321.304688 409.1875 305.828125 443.351562 C 301.230469 452.335938 297.589844 461.726562 294.890625 471.453125 C 319.988281 508.324219 357.648438 532.71875 397.695312 550.929688 C 503.207031 505.007812 546.914062 428.855469 535.789062 316.054688 Z M 535.789062 316.054688 " fill-opacity="1" fill-rule="nonzero"/></g><path fill="#000000" d="M 406.117188 350.382812 C 408.039062 341.480469 408.375 334.441406 407.957031 325.421875 C 404.480469 325.304688 400.960938 325.339844 397.492188 325.421875 C 369.328125 326.082031 344.261719 330.214844 319.570312 344.472656 C 309.34375 350.382812 299.890625 357.558594 291.050781 365.367188 C 285.40625 370.363281 267.140625 390.539062 265.65625 396.359375 C 266.238281 405.984375 270.679688 421.824219 275.070312 433.320312 C 294.550781 375.691406 345.835938 347.441406 406.117188 350.382812 Z M 406.117188 350.382812 " fill-opacity="1" fill-rule="nonzero"/></svg>