<svg xmlns="http://www.w3.org/2000/svg" xmlns:xlink="http://www.w3.org/1999/xlink" width="1080" zoomAndPan="magnify" viewBox="0 0 810 809.999993" height="1080" preserveAspectRatio="xMidYMid meet" version="1.0"><defs><g/><clipPath id="8cd850cb10"><path d="M 162.5 317 L 280 317 L 280 447 L 162.5 447 Z M 162.5 317 " clip-rule="nonzero"/></clipPath><clipPath id="0948526139"><path d="M 182 324 L 339 324 L 339 498.296875 L 182 498.296875 Z M 182 324 " clip-rule="nonzero"/></clipPath><clipPath id="3cb14fe301"><rect x="0" width="244" y="0" height="96"/></clipPath><clipPath id="2c23640550"><rect x="0" width="210" y="0" height="52"/></clipPath></defs><rect x="-81" width="972" fill="#ffffff" y="-80.999999" height="971.999992" fill-opacity="1"/><rect x="-81" width="972" fill="#ffffff" y="-80.999999" height="971.999992" fill-opacity="1"/><g clip-path="url(#8cd850cb10)"><path fill="#008b8b" d="M 259.621094 333.230469 L 260.898438 333.277344 L 261.332031 334.484375 C 274.761719 371.882812 249.625 420.214844 215.789062 438.503906 C 219.109375 441.441406 226.957031 446.21875 228.78125 446.171875 C 260.574219 426.253906 280.761719 393.988281 279.820312 356.035156 C 279.601562 352.289062 279.332031 348.539062 278.898438 344.851562 C 278.21875 340.140625 275.269531 324.21875 272.4375 320.003906 C 231.441406 311.578125 196.09375 324.414062 163.957031 350.007812 C 163.148438 356.976562 162.632812 363.992188 162.5 371.003906 C 191.941406 344.539062 218.523438 331.75 259.621094 333.230469 Z M 259.621094 333.230469 " fill-opacity="1" fill-rule="nonzero"/></g><g clip-path="url(#0948526139)"><path fill="#008b8b" d="M 337.144531 348.035156 C 322.3125 338.523438 306.421875 330.175781 289.660156 324.609375 C 291.054688 328.285156 292.253906 332.046875 293.261719 335.855469 L 292.8125 335.796875 C 293.089844 335.898438 293.261719 336.058594 293.363281 336.265625 L 293.546875 336.957031 C 293.605469 337.496094 293.589844 338.105469 293.941406 338.5625 L 293.945312 338.582031 C 302.542969 382.308594 277.039062 438.042969 240.339844 458.367188 C 242.515625 461.570312 254.96875 468.472656 256.921875 467.019531 C 307.191406 429.558594 311.648438 387.042969 310.921875 350.375 C 314.5625 352.296875 318.152344 354.324219 321.679688 356.433594 L 322.542969 356.945312 L 322.601562 357.945312 C 326.109375 416.679688 302.738281 455.851562 249.664062 481.226562 L 248.828125 481.621094 L 248 481.214844 C 230.0625 472.347656 213.480469 461.214844 200.988281 446.160156 C 203.675781 428.550781 223.078125 404.699219 242.144531 403.824219 C 247.046875 397.035156 247.539062 396.039062 250.640625 388.332031 C 222.675781 386.238281 199.78125 407.679688 189.867188 429.558594 C 186.921875 435.316406 184.59375 441.328125 182.863281 447.558594 C 198.9375 471.171875 223.058594 486.792969 248.703125 498.457031 C 316.277344 469.046875 344.265625 420.277344 337.144531 348.035156 Z M 337.144531 348.035156 " fill-opacity="1" fill-rule="nonzero"/></g><path fill="#008b8b" d="M 254.097656 370.019531 C 255.328125 364.320312 255.542969 359.808594 255.277344 354.035156 C 253.046875 353.957031 250.792969 353.980469 248.574219 354.035156 C 230.535156 354.457031 214.480469 357.101562 198.667969 366.234375 C 192.121094 370.019531 186.066406 374.617188 180.402344 379.617188 C 176.789062 382.816406 165.089844 395.738281 164.140625 399.464844 C 164.511719 405.628906 167.359375 415.773438 170.167969 423.136719 C 182.648438 386.230469 215.492188 368.136719 254.097656 370.019531 Z M 254.097656 370.019531 " fill-opacity="1" fill-rule="nonzero"/><g transform="matrix(1, 0, 0, 1, 380, 330)"><g clip-path="url(#3cb14fe301)"><g fill="#000000" fill-opacity="1"><g transform="translate(0.976121, 75.70842)"><g><path d="M 10.375 0 C 8.96875 0 7.828125 -0.4375 6.953125 -1.3125 C 6.078125 -2.1875 5.640625 -3.28125 5.640625 -4.59375 L 5.640625 -48.046875 C 5.640625 -49.347656 6.078125 -50.4375 6.953125 -51.3125 C 7.828125 -52.1875 8.914062 -52.625 10.21875 -52.625 L 34.65625 -52.625 C 35.957031 -52.625 37.046875 -52.210938 37.921875 -51.390625 C 38.804688 -50.566406 39.25 -49.5 39.25 -48.1875 C 39.25 -47.09375 38.804688 -46.117188 37.921875 -45.265625 C 37.046875 -44.410156 35.957031 -43.984375 34.65625 -43.984375 L 14.359375 -43.984375 L 15.03125 -44.890625 L 15.03125 -29.78125 L 14.515625 -30.75 L 31.28125 -30.75 C 32.582031 -30.75 33.671875 -30.332031 34.546875 -29.5 C 35.421875 -28.675781 35.859375 -27.613281 35.859375 -26.3125 C 35.859375 -25.207031 35.421875 -24.226562 34.546875 -23.375 C 33.671875 -22.53125 32.582031 -22.109375 31.28125 -22.109375 L 14.359375 -22.109375 L 15.03125 -22.78125 L 15.03125 -4.59375 C 15.03125 -3.28125 14.566406 -2.1875 13.640625 -1.3125 C 12.710938 -0.4375 11.625 0 10.375 0 Z M 10.375 0 "/></g></g></g><g fill="#000000" fill-opacity="1"><g transform="translate(43.230648, 75.70842)"><g><path d="M 13.390625 -4.59375 C 13.390625 -3.28125 12.960938 -2.1875 12.109375 -1.3125 C 11.253906 -0.4375 10.175781 0 8.875 0 C 7.570312 0 6.492188 -0.4375 5.640625 -1.3125 C 4.785156 -2.1875 4.359375 -3.28125 4.359375 -4.59375 L 4.359375 -35.640625 C 4.359375 -36.941406 4.785156 -38.03125 5.640625 -38.90625 C 6.492188 -39.78125 7.570312 -40.21875 8.875 -40.21875 C 10.175781 -40.21875 11.253906 -39.78125 12.109375 -38.90625 C 12.960938 -38.03125 13.390625 -36.941406 13.390625 -35.640625 Z M 8.796875 -45.109375 C 7.085938 -45.109375 5.882812 -45.382812 5.1875 -45.9375 C 4.488281 -46.488281 4.140625 -47.46875 4.140625 -48.875 L 4.140625 -50.296875 C 4.140625 -51.753906 4.523438 -52.742188 5.296875 -53.265625 C 6.078125 -53.796875 7.269531 -54.0625 8.875 -54.0625 C 10.625 -54.0625 11.847656 -53.785156 12.546875 -53.234375 C 13.253906 -52.679688 13.609375 -51.703125 13.609375 -50.296875 L 13.609375 -48.875 C 13.609375 -47.414062 13.234375 -46.421875 12.484375 -45.890625 C 11.734375 -45.367188 10.503906 -45.109375 8.796875 -45.109375 Z M 8.796875 -45.109375 "/></g></g></g><g fill="#000000" fill-opacity="1"><g transform="translate(60.974535, 75.70842)"><g><path d="M 14.65625 -4.59375 C 14.65625 -3.28125 14.21875 -2.1875 13.34375 -1.3125 C 12.46875 -0.4375 11.378906 0 10.078125 0 C 8.828125 0 7.773438 -0.4375 6.921875 -1.3125 C 6.066406 -2.1875 5.640625 -3.28125 5.640625 -4.59375 L 5.640625 -51.046875 C 5.640625 -52.347656 6.078125 -53.4375 6.953125 -54.3125 C 7.828125 -55.195312 8.914062 -55.640625 10.21875 -55.640625 C 11.53125 -55.640625 12.597656 -55.195312 13.421875 -54.3125 C 14.242188 -53.4375 14.65625 -52.347656 14.65625 -51.046875 Z M 14.65625 -4.59375 "/></g></g></g><g fill="#000000" fill-opacity="1"><g transform="translate(81.274741, 75.70842)"><g><path d="M 23.828125 0.75 C 19.566406 0.75 15.867188 -0.140625 12.734375 -1.921875 C 9.609375 -3.703125 7.203125 -6.117188 5.515625 -9.171875 C 3.835938 -12.234375 3 -15.691406 3 -19.546875 C 3 -24.054688 3.914062 -27.898438 5.75 -31.078125 C 7.582031 -34.265625 9.976562 -36.710938 12.9375 -38.421875 C 15.894531 -40.128906 19.023438 -40.984375 22.328125 -40.984375 C 24.890625 -40.984375 27.304688 -40.453125 29.578125 -39.390625 C 31.859375 -38.335938 33.875 -36.894531 35.625 -35.0625 C 37.382812 -33.238281 38.78125 -31.125 39.8125 -28.71875 C 40.84375 -26.3125 41.359375 -23.753906 41.359375 -21.046875 C 41.304688 -19.847656 40.828125 -18.875 39.921875 -18.125 C 39.023438 -17.375 37.972656 -17 36.765625 -17 L 8.046875 -17 L 5.796875 -24.515625 L 33.390625 -24.515625 L 31.734375 -23 L 31.734375 -25.03125 C 31.628906 -26.488281 31.113281 -27.789062 30.1875 -28.9375 C 29.257812 -30.09375 28.101562 -31.007812 26.71875 -31.6875 C 25.34375 -32.363281 23.878906 -32.703125 22.328125 -32.703125 C 20.828125 -32.703125 19.425781 -32.5 18.125 -32.09375 C 16.820312 -31.695312 15.691406 -31.019531 14.734375 -30.0625 C 13.785156 -29.113281 13.035156 -27.835938 12.484375 -26.234375 C 11.929688 -24.628906 11.65625 -22.601562 11.65625 -20.15625 C 11.65625 -17.445312 12.21875 -15.148438 13.34375 -13.265625 C 14.46875 -11.390625 15.921875 -9.960938 17.703125 -8.984375 C 19.484375 -8.003906 21.378906 -7.515625 23.390625 -7.515625 C 25.242188 -7.515625 26.71875 -7.664062 27.8125 -7.96875 C 28.914062 -8.269531 29.804688 -8.632812 30.484375 -9.0625 C 31.160156 -9.488281 31.773438 -9.851562 32.328125 -10.15625 C 33.234375 -10.601562 34.085938 -10.828125 34.890625 -10.828125 C 35.992188 -10.828125 36.90625 -10.453125 37.625 -9.703125 C 38.351562 -8.953125 38.71875 -8.070312 38.71875 -7.0625 C 38.71875 -5.707031 38.015625 -4.484375 36.609375 -3.390625 C 35.304688 -2.285156 33.476562 -1.316406 31.125 -0.484375 C 28.769531 0.335938 26.335938 0.75 23.828125 0.75 Z M 23.828125 0.75 "/></g></g></g><g fill="#000000" fill-opacity="1"><g transform="translate(125.634459, 75.70842)"><g><path d="M 24.96875 -40.828125 L 8.71875 -2.625 C 8.375 -1.675781 7.835938 -0.9375 7.109375 -0.40625 C 6.378906 0.113281 5.585938 0.375 4.734375 0.375 C 3.378906 0.375 2.375 0 1.71875 -0.75 C 1.070312 -1.5 0.75 -2.425781 0.75 -3.53125 C 0.75 -3.976562 0.828125 -4.457031 0.984375 -4.96875 L 19.703125 -49.921875 C 20.097656 -50.921875 20.707031 -51.695312 21.53125 -52.25 C 22.363281 -52.800781 23.253906 -53.03125 24.203125 -52.9375 C 25.109375 -52.9375 25.945312 -52.671875 26.71875 -52.140625 C 27.5 -51.617188 28.066406 -50.878906 28.421875 -49.921875 L 46.921875 -5.859375 C 47.171875 -5.210938 47.296875 -4.613281 47.296875 -4.0625 C 47.296875 -2.707031 46.851562 -1.628906 45.96875 -0.828125 C 45.09375 -0.0234375 44.128906 0.375 43.078125 0.375 C 42.179688 0.375 41.367188 0.0976562 40.640625 -0.453125 C 39.910156 -1.003906 39.347656 -1.753906 38.953125 -2.703125 L 22.78125 -40.375 Z M 11.046875 -11.796875 L 15.1875 -20.453125 L 35.484375 -20.453125 L 36.921875 -11.796875 Z M 11.046875 -11.796875 "/></g></g></g><g fill="#000000" fill-opacity="1"><g transform="translate(173.678305, 75.70842)"><g><path d="M 26.015625 -40.984375 C 30.023438 -40.984375 32.984375 -40.015625 34.890625 -38.078125 C 36.796875 -36.148438 38.046875 -33.65625 38.640625 -30.59375 L 37.375 -31.28125 L 37.96875 -32.484375 C 38.570312 -33.628906 39.5 -34.863281 40.75 -36.1875 C 42 -37.519531 43.515625 -38.648438 45.296875 -39.578125 C 47.078125 -40.515625 49.070312 -40.984375 51.28125 -40.984375 C 54.882812 -40.984375 57.625 -40.203125 59.5 -38.640625 C 61.382812 -37.085938 62.675781 -35.019531 63.375 -32.4375 C 64.082031 -29.863281 64.4375 -26.992188 64.4375 -23.828125 L 64.4375 -4.59375 C 64.4375 -3.28125 64.007812 -2.1875 63.15625 -1.3125 C 62.300781 -0.4375 61.222656 0 59.921875 0 C 58.617188 0 57.539062 -0.4375 56.6875 -1.3125 C 55.832031 -2.1875 55.40625 -3.28125 55.40625 -4.59375 L 55.40625 -23.828125 C 55.40625 -25.484375 55.203125 -26.972656 54.796875 -28.296875 C 54.398438 -29.628906 53.675781 -30.695312 52.625 -31.5 C 51.570312 -32.300781 50.070312 -32.703125 48.125 -32.703125 C 46.21875 -32.703125 44.585938 -32.300781 43.234375 -31.5 C 41.878906 -30.695312 40.863281 -29.628906 40.1875 -28.296875 C 39.507812 -26.972656 39.171875 -25.484375 39.171875 -23.828125 L 39.171875 -4.59375 C 39.171875 -3.28125 38.742188 -2.1875 37.890625 -1.3125 C 37.035156 -0.4375 35.957031 0 34.65625 0 C 33.351562 0 32.273438 -0.4375 31.421875 -1.3125 C 30.578125 -2.1875 30.15625 -3.28125 30.15625 -4.59375 L 30.15625 -23.828125 C 30.15625 -25.484375 29.953125 -26.972656 29.546875 -28.296875 C 29.148438 -29.628906 28.425781 -30.695312 27.375 -31.5 C 26.320312 -32.300781 24.816406 -32.703125 22.859375 -32.703125 C 20.953125 -32.703125 19.320312 -32.300781 17.96875 -31.5 C 16.613281 -30.695312 15.597656 -29.628906 14.921875 -28.296875 C 14.242188 -26.972656 13.90625 -25.484375 13.90625 -23.828125 L 13.90625 -4.59375 C 13.90625 -3.28125 13.476562 -2.1875 12.625 -1.3125 C 11.78125 -0.4375 10.703125 0 9.390625 0 C 8.085938 0 7.007812 -0.4375 6.15625 -1.3125 C 5.3125 -2.1875 4.890625 -3.28125 4.890625 -4.59375 L 4.890625 -35.640625 C 4.890625 -36.941406 5.3125 -38.03125 6.15625 -38.90625 C 7.007812 -39.78125 8.085938 -40.21875 9.390625 -40.21875 C 10.703125 -40.21875 11.78125 -39.78125 12.625 -38.90625 C 13.476562 -38.03125 13.90625 -36.941406 13.90625 -35.640625 L 13.90625 -32.40625 L 12.78125 -32.625 C 13.226562 -33.476562 13.851562 -34.394531 14.65625 -35.375 C 15.457031 -36.351562 16.4375 -37.265625 17.59375 -38.109375 C 18.75 -38.960938 20.023438 -39.65625 21.421875 -40.1875 C 22.828125 -40.71875 24.359375 -40.984375 26.015625 -40.984375 Z M 26.015625 -40.984375 "/></g></g></g></g></g><g transform="matrix(1, 0, 0, 1, 386, 429)"><g clip-path="url(#2c23640550)"><g fill="#000000" fill-opacity="1"><g transform="translate(1.503963, 38.367834)"><g><path d="M 17.859375 -25.65625 L 17.859375 -22.21875 L 6.96875 -22.21875 L 6.96875 -14.65625 L 15.46875 -14.65625 L 15.46875 -11.21875 L 6.96875 -11.21875 L 6.96875 0 L 2.765625 0 L 2.765625 -25.65625 Z M 17.859375 -25.65625 "/></g></g></g><g fill="#000000" fill-opacity="1"><g transform="translate(27.88992, 38.367834)"><g><path d="M 6.96875 -25.65625 L 6.96875 0 L 2.765625 0 L 2.765625 -25.65625 Z M 6.96875 -25.65625 "/></g></g></g><g fill="#000000" fill-opacity="1"><g transform="translate(45.013098, 38.367834)"><g><path d="M 23.84375 0 L 19.640625 0 L 6.96875 -19.15625 L 6.96875 0 L 2.765625 0 L 2.765625 -25.6875 L 6.96875 -25.6875 L 19.640625 -6.5625 L 19.640625 -25.6875 L 23.84375 -25.6875 Z M 23.84375 0 "/></g></g></g><g fill="#000000" fill-opacity="1"><g transform="translate(79.001173, 38.367834)"><g><path d="M 18.234375 -5.234375 L 7.484375 -5.234375 L 5.640625 0 L 1.25 0 L 10.4375 -25.6875 L 15.3125 -25.6875 L 24.5 0 L 20.078125 0 Z M 17.046875 -8.671875 L 12.875 -20.59375 L 8.671875 -8.671875 Z M 17.046875 -8.671875 "/></g></g></g><g fill="#000000" fill-opacity="1"><g transform="translate(112.103571, 38.367834)"><g><path d="M 23.84375 0 L 19.640625 0 L 6.96875 -19.15625 L 6.96875 0 L 2.765625 0 L 2.765625 -25.6875 L 6.96875 -25.6875 L 19.640625 -6.5625 L 19.640625 -25.6875 L 23.84375 -25.6875 Z M 23.84375 0 "/></g></g></g><g fill="#000000" fill-opacity="1"><g transform="translate(146.091646, 38.367834)"><g><path d="M 1.359375 -12.875 C 1.359375 -15.382812 1.941406 -17.632812 3.109375 -19.625 C 4.285156 -21.625 5.875 -23.179688 7.875 -24.296875 C 9.882812 -25.421875 12.082031 -25.984375 14.46875 -25.984375 C 17.195312 -25.984375 19.625 -25.3125 21.75 -23.96875 C 23.882812 -22.625 25.429688 -20.722656 26.390625 -18.265625 L 21.328125 -18.265625 C 20.660156 -19.617188 19.738281 -20.628906 18.5625 -21.296875 C 17.382812 -21.960938 16.019531 -22.296875 14.46875 -22.296875 C 12.769531 -22.296875 11.253906 -21.910156 9.921875 -21.140625 C 8.597656 -20.378906 7.5625 -19.285156 6.8125 -17.859375 C 6.0625 -16.429688 5.6875 -14.769531 5.6875 -12.875 C 5.6875 -10.976562 6.0625 -9.316406 6.8125 -7.890625 C 7.5625 -6.460938 8.597656 -5.363281 9.921875 -4.59375 C 11.253906 -3.820312 12.769531 -3.4375 14.46875 -3.4375 C 16.019531 -3.4375 17.382812 -3.765625 18.5625 -4.421875 C 19.738281 -5.085938 20.660156 -6.097656 21.328125 -7.453125 L 26.390625 -7.453125 C 25.429688 -4.992188 23.882812 -3.097656 21.75 -1.765625 C 19.625 -0.441406 17.195312 0.21875 14.46875 0.21875 C 12.050781 0.21875 9.847656 -0.335938 7.859375 -1.453125 C 5.867188 -2.578125 4.285156 -4.132812 3.109375 -6.125 C 1.941406 -8.113281 1.359375 -10.363281 1.359375 -12.875 Z M 1.359375 -12.875 "/></g></g></g><g fill="#000000" fill-opacity="1"><g transform="translate(181.998706, 38.367834)"><g><path d="M 6.96875 -22.25 L 6.96875 -14.71875 L 15.828125 -14.71875 L 15.828125 -11.296875 L 6.96875 -11.296875 L 6.96875 -3.4375 L 16.9375 -3.4375 L 16.9375 0 L 2.765625 0 L 2.765625 -25.6875 L 16.9375 -25.6875 L 16.9375 -22.25 Z M 6.96875 -22.25 "/></g></g></g></g></g></svg>